<?xml version="1.0" standalone="no"?>
<!DOCTYPE svg PUBLIC "-//W3C//DTD SVG 20010904//EN"
 "http://www.w3.org/TR/2001/REC-SVG-20010904/DTD/svg10.dtd">
<svg version="1.0" xmlns="http://www.w3.org/2000/svg"
 width="290.000000pt" height="290.000000pt" viewBox="0 0 290.000000 290.000000"
 preserveAspectRatio="xMidYMid meet">
<metadata>
Created by potrace 1.14, written by Peter Selinger 2001-2017
</metadata>
<g transform="translate(0.000000,290.000000) scale(0.100000,-0.100000)"
fill="#000000" stroke="none">
<path d="M1323 2336 c-135 -31 -277 -136 -350 -257 -54 -91 -73 -187 -73 -376
l0 -163 100 0 100 0 0 173 c0 169 0 173 29 234 118 248 435 274 590 49 49 -70
61 -132 61 -303 l0 -153 95 0 95 0 0 188 c0 170 -3 193 -24 253 -91 258 -365
413 -623 355z"/>
<path d="M784 1435 l-25 -25 3 -382 c3 -378 3 -383 25 -414 46 -64 44 -64 663
-64 619 0 617 0 663 64 22 31 22 36 25 414 l3 382 -25 25 -25 25 -641 0 -641
0 -25 -25z m771 -235 c60 -58 71 -149 26 -211 -15 -20 -21 -43 -21 -79 0 -70
-21 -116 -63 -136 -48 -23 -98 -12 -131 27 -22 25 -26 41 -26 90 0 48 -5 68
-25 97 -50 73 -27 182 48 232 26 17 44 20 94 17 56 -3 67 -7 98 -37z"/>
</g>
</svg>
